<svg width="24" height="24" viewBox="0 0 24 24" fill="none" xmlns="http://www.w3.org/2000/svg">
  <path d="M21 11.5C21.0026 12.8392 20.6192 14.1493 19.8931 15.2787C19.167 16.4081 18.1276 17.3102 16.8927 17.8835C15.6577 18.4568 14.2737 18.6787 12.901 18.5284C11.5283 18.3782 10.2247 17.8615 9.14207 17.0337L3 19L5.62598 13.875C5.24056 12.9182 5.04852 11.9027 5.05847 10.8828C5.06842 9.86291 5.28011 8.85665 5.6814 7.92558C6.08269 6.99452 6.66515 6.155 7.39862 5.45794C8.13208 4.76087 8.99905 4.22057 9.95197 3.867C10.9049 3.51343 11.9245 3.35482 12.9519 3.39854C13.9793 3.44226 14.9921 3.68734 15.9223 4.11891C16.8525 4.55048 17.6794 5.16074 18.351 5.91547C19.0226 6.67021 19.5254 7.55417 19.8285 8.51484C20.1316 9.47551 20.2286 10.4965 20.1133 11.5077" stroke="#10B981" stroke-width="2" stroke-linecap="round" stroke-linejoin="round"/>
</svg>
